ISO-10303-21;
HEADER;
/* Generated by software containing ST-Developer
 * from STEP Tools, Inc. (www.steptools.com) 
 */
/* OPTION: using custom renumber hook */

FILE_DESCRIPTION(
/* description */ ('STEP AP242',
'CAx-IF Rec.Pracs.---Representation and Presentation of Product Manufa
cturing Information (PMI)---4.0---2014-10-13',
'CAx-IF Rec.Pracs.---3D Tessellated Geometry---0.4---2014-09-14','2;1'),

/* implementation_level */ '2;1');

FILE_NAME(
/* name */ '689547ae35a2f35004602477',
/* time_stamp */ '2025-08-08T00:41:18Z',
/* author */ (''),
/* organization */ (''),
/* preprocessor_version */ 'ST-DEVELOPER v20',
/* originating_system */ 'ONSHAPE BY PTC INC, 1.202',
/* authorisation */ '  ');

FILE_SCHEMA (('AP242_MANAGED_MODEL_BASED_3D_ENGINEERING_MIM_LF { 1 0 10303 442 1 1 4 }'));
ENDSEC;

DATA;
#10=SHAPE_REPRESENTATION_RELATIONSHIP('','',#598,#11);
#11=ADVANCED_BREP_SHAPE_REPRESENTATION('',(#596),#936);
#12=ORIENTED_EDGE('',*,*,#174,.F.);
#13=ORIENTED_EDGE('',*,*,#175,.T.);
#14=ORIENTED_EDGE('',*,*,#176,.T.);
#15=ORIENTED_EDGE('',*,*,#177,.F.);
#16=ORIENTED_EDGE('',*,*,#178,.F.);
#17=ORIENTED_EDGE('',*,*,#179,.T.);
#18=ORIENTED_EDGE('',*,*,#180,.T.);
#19=ORIENTED_EDGE('',*,*,#181,.F.);
#20=ORIENTED_EDGE('',*,*,#182,.F.);
#21=ORIENTED_EDGE('',*,*,#183,.T.);
#22=ORIENTED_EDGE('',*,*,#184,.T.);
#23=ORIENTED_EDGE('',*,*,#179,.F.);
#24=ORIENTED_EDGE('',*,*,#185,.F.);
#25=ORIENTED_EDGE('',*,*,#186,.T.);
#26=ORIENTED_EDGE('',*,*,#187,.T.);
#27=ORIENTED_EDGE('',*,*,#183,.F.);
#28=ORIENTED_EDGE('',*,*,#188,.F.);
#29=ORIENTED_EDGE('',*,*,#189,.T.);
#30=ORIENTED_EDGE('',*,*,#190,.T.);
#31=ORIENTED_EDGE('',*,*,#186,.F.);
#32=ORIENTED_EDGE('',*,*,#191,.F.);
#33=ORIENTED_EDGE('',*,*,#192,.T.);
#34=ORIENTED_EDGE('',*,*,#193,.T.);
#35=ORIENTED_EDGE('',*,*,#189,.F.);
#36=ORIENTED_EDGE('',*,*,#194,.F.);
#37=ORIENTED_EDGE('',*,*,#192,.F.);
#38=ORIENTED_EDGE('',*,*,#195,.F.);
#39=ORIENTED_EDGE('',*,*,#196,.T.);
#40=ORIENTED_EDGE('',*,*,#197,.T.);
#41=ORIENTED_EDGE('',*,*,#198,.T.);
#42=ORIENTED_EDGE('',*,*,#199,.F.);
#43=ORIENTED_EDGE('',*,*,#200,.F.);
#44=ORIENTED_EDGE('',*,*,#201,.F.);
#45=ORIENTED_EDGE('',*,*,#202,.F.);
#46=ORIENTED_EDGE('',*,*,#203,.F.);
#47=ORIENTED_EDGE('',*,*,#204,.F.);
#48=ORIENTED_EDGE('',*,*,#205,.F.);
#49=ORIENTED_EDGE('',*,*,#206,.F.);
#50=ORIENTED_EDGE('',*,*,#207,.F.);
#51=ORIENTED_EDGE('',*,*,#208,.F.);
#52=ORIENTED_EDGE('',*,*,#209,.F.);
#53=ORIENTED_EDGE('',*,*,#210,.F.);
#54=ORIENTED_EDGE('',*,*,#197,.F.);
#55=ORIENTED_EDGE('',*,*,#211,.T.);
#56=ORIENTED_EDGE('',*,*,#196,.F.);
#57=ORIENTED_EDGE('',*,*,#212,.F.);
#58=ORIENTED_EDGE('',*,*,#213,.T.);
#59=ORIENTED_EDGE('',*,*,#214,.T.);
#60=ORIENTED_EDGE('',*,*,#215,.F.);
#61=ORIENTED_EDGE('',*,*,#211,.F.);
#62=ORIENTED_EDGE('',*,*,#176,.F.);
#63=ORIENTED_EDGE('',*,*,#216,.F.);
#64=ORIENTED_EDGE('',*,*,#217,.F.);
#65=ORIENTED_EDGE('',*,*,#218,.F.);
#66=ORIENTED_EDGE('',*,*,#219,.F.);
#67=ORIENTED_EDGE('',*,*,#180,.F.);
#68=ORIENTED_EDGE('',*,*,#184,.F.);
#69=ORIENTED_EDGE('',*,*,#187,.F.);
#70=ORIENTED_EDGE('',*,*,#190,.F.);
#71=ORIENTED_EDGE('',*,*,#193,.F.);
#72=ORIENTED_EDGE('',*,*,#194,.T.);
#73=ORIENTED_EDGE('',*,*,#220,.T.);
#74=ORIENTED_EDGE('',*,*,#221,.T.);
#75=ORIENTED_EDGE('',*,*,#222,.T.);
#76=ORIENTED_EDGE('',*,*,#223,.T.);
#77=ORIENTED_EDGE('',*,*,#224,.T.);
#78=ORIENTED_EDGE('',*,*,#225,.T.);
#79=ORIENTED_EDGE('',*,*,#226,.T.);
#80=ORIENTED_EDGE('',*,*,#227,.T.);
#81=ORIENTED_EDGE('',*,*,#228,.T.);
#82=ORIENTED_EDGE('',*,*,#229,.T.);
#83=ORIENTED_EDGE('',*,*,#230,.T.);
#84=ORIENTED_EDGE('',*,*,#231,.T.);
#85=ORIENTED_EDGE('',*,*,#214,.F.);
#86=ORIENTED_EDGE('',*,*,#232,.F.);
#87=ORIENTED_EDGE('',*,*,#233,.F.);
#88=ORIENTED_EDGE('',*,*,#230,.F.);
#89=ORIENTED_EDGE('',*,*,#234,.F.);
#90=ORIENTED_EDGE('',*,*,#200,.T.);
#91=ORIENTED_EDGE('',*,*,#235,.T.);
#92=ORIENTED_EDGE('',*,*,#231,.F.);
#93=ORIENTED_EDGE('',*,*,#235,.F.);
#94=ORIENTED_EDGE('',*,*,#199,.T.);
#95=ORIENTED_EDGE('',*,*,#215,.T.);
#96=ORIENTED_EDGE('',*,*,#229,.F.);
#97=ORIENTED_EDGE('',*,*,#236,.F.);
#98=ORIENTED_EDGE('',*,*,#201,.T.);
#99=ORIENTED_EDGE('',*,*,#234,.T.);
#100=ORIENTED_EDGE('',*,*,#228,.F.);
#101=ORIENTED_EDGE('',*,*,#237,.F.);
#102=ORIENTED_EDGE('',*,*,#202,.T.);
#103=ORIENTED_EDGE('',*,*,#236,.T.);
#104=ORIENTED_EDGE('',*,*,#227,.F.);
#105=ORIENTED_EDGE('',*,*,#238,.F.);
#106=ORIENTED_EDGE('',*,*,#203,.T.);
#107=ORIENTED_EDGE('',*,*,#237,.T.);
#108=ORIENTED_EDGE('',*,*,#225,.F.);
#109=ORIENTED_EDGE('',*,*,#239,.F.);
#110=ORIENTED_EDGE('',*,*,#205,.T.);
#111=ORIENTED_EDGE('',*,*,#240,.T.);
#112=ORIENTED_EDGE('',*,*,#226,.F.);
#113=ORIENTED_EDGE('',*,*,#240,.F.);
#114=ORIENTED_EDGE('',*,*,#204,.T.);
#115=ORIENTED_EDGE('',*,*,#238,.T.);
#116=ORIENTED_EDGE('',*,*,#224,.F.);
#117=ORIENTED_EDGE('',*,*,#241,.F.);
#118=ORIENTED_EDGE('',*,*,#206,.T.);
#119=ORIENTED_EDGE('',*,*,#239,.T.);
#120=ORIENTED_EDGE('',*,*,#223,.F.);
#121=ORIENTED_EDGE('',*,*,#242,.F.);
#122=ORIENTED_EDGE('',*,*,#207,.T.);
#123=ORIENTED_EDGE('',*,*,#241,.T.);
#124=ORIENTED_EDGE('',*,*,#222,.F.);
#125=ORIENTED_EDGE('',*,*,#243,.F.);
#126=ORIENTED_EDGE('',*,*,#208,.T.);
#127=ORIENTED_EDGE('',*,*,#242,.T.);
#128=ORIENTED_EDGE('',*,*,#221,.F.);
#129=ORIENTED_EDGE('',*,*,#244,.F.);
#130=ORIENTED_EDGE('',*,*,#209,.T.);
#131=ORIENTED_EDGE('',*,*,#243,.T.);
#132=ORIENTED_EDGE('',*,*,#220,.F.);
#133=ORIENTED_EDGE('',*,*,#198,.F.);
#134=ORIENTED_EDGE('',*,*,#210,.T.);
#135=ORIENTED_EDGE('',*,*,#244,.T.);
#136=ORIENTED_EDGE('',*,*,#245,.F.);
#137=ORIENTED_EDGE('',*,*,#246,.F.);
#138=ORIENTED_EDGE('',*,*,#177,.T.);
#139=ORIENTED_EDGE('',*,*,#233,.T.);
#140=ORIENTED_EDGE('',*,*,#213,.F.);
#141=ORIENTED_EDGE('',*,*,#247,.F.);
#142=ORIENTED_EDGE('',*,*,#245,.T.);
#143=ORIENTED_EDGE('',*,*,#232,.T.);
#144=ORIENTED_EDGE('',*,*,#175,.F.);
#145=ORIENTED_EDGE('',*,*,#248,.F.);
#146=ORIENTED_EDGE('',*,*,#249,.T.);
#147=ORIENTED_EDGE('',*,*,#216,.T.);
#148=ORIENTED_EDGE('',*,*,#249,.F.);
#149=ORIENTED_EDGE('',*,*,#250,.F.);
#150=ORIENTED_EDGE('',*,*,#251,.T.);
#151=ORIENTED_EDGE('',*,*,#217,.T.);
#152=ORIENTED_EDGE('',*,*,#252,.F.);
#153=ORIENTED_EDGE('',*,*,#253,.F.);
#154=ORIENTED_EDGE('',*,*,#181,.T.);
#155=ORIENTED_EDGE('',*,*,#219,.T.);
#156=ORIENTED_EDGE('',*,*,#251,.F.);
#157=ORIENTED_EDGE('',*,*,#254,.F.);
#158=ORIENTED_EDGE('',*,*,#252,.T.);
#159=ORIENTED_EDGE('',*,*,#218,.T.);
#160=ORIENTED_EDGE('',*,*,#174,.T.);
#161=ORIENTED_EDGE('',*,*,#246,.T.);
#162=ORIENTED_EDGE('',*,*,#247,.T.);
#163=ORIENTED_EDGE('',*,*,#212,.T.);
#164=ORIENTED_EDGE('',*,*,#195,.T.);
#165=ORIENTED_EDGE('',*,*,#191,.T.);
#166=ORIENTED_EDGE('',*,*,#188,.T.);
#167=ORIENTED_EDGE('',*,*,#185,.T.);
#168=ORIENTED_EDGE('',*,*,#182,.T.);
#169=ORIENTED_EDGE('',*,*,#178,.T.);
#170=ORIENTED_EDGE('',*,*,#253,.T.);
#171=ORIENTED_EDGE('',*,*,#254,.T.);
#172=ORIENTED_EDGE('',*,*,#250,.T.);
#173=ORIENTED_EDGE('',*,*,#248,.T.);
#174=EDGE_CURVE('',#255,#256,#309,.T.);
#175=EDGE_CURVE('',#255,#257,#310,.T.);
#176=EDGE_CURVE('',#257,#258,#311,.T.);
#177=EDGE_CURVE('',#256,#258,#312,.T.);
#178=EDGE_CURVE('',#259,#260,#313,.T.);
#179=EDGE_CURVE('',#259,#261,#314,.T.);
#180=EDGE_CURVE('',#261,#262,#315,.T.);
#181=EDGE_CURVE('',#260,#262,#316,.T.);
#182=EDGE_CURVE('',#263,#259,#317,.T.);
#183=EDGE_CURVE('',#263,#264,#318,.T.);
#184=EDGE_CURVE('',#264,#261,#319,.T.);
#185=EDGE_CURVE('',#265,#263,#320,.T.);
#186=EDGE_CURVE('',#265,#266,#321,.T.);
#187=EDGE_CURVE('',#266,#264,#322,.T.);
#188=EDGE_CURVE('',#267,#265,#323,.T.);
#189=EDGE_CURVE('',#267,#268,#324,.T.);
#190=EDGE_CURVE('',#268,#266,#325,.T.);
#191=EDGE_CURVE('',#269,#267,#326,.T.);
#192=EDGE_CURVE('',#269,#270,#327,.T.);
#193=EDGE_CURVE('',#270,#268,#328,.T.);
#194=EDGE_CURVE('',#270,#271,#329,.T.);
#195=EDGE_CURVE('',#272,#269,#330,.T.);
#196=EDGE_CURVE('',#272,#273,#331,.T.);
#197=EDGE_CURVE('',#273,#274,#332,.T.);
#198=EDGE_CURVE('',#274,#271,#333,.T.);
#199=EDGE_CURVE('',#275,#276,#334,.T.);
#200=EDGE_CURVE('',#277,#275,#335,.T.);
#201=EDGE_CURVE('',#278,#277,#336,.T.);
#202=EDGE_CURVE('',#279,#278,#337,.T.);
#203=EDGE_CURVE('',#280,#279,#338,.T.);
#204=EDGE_CURVE('',#281,#280,#339,.T.);
#205=EDGE_CURVE('',#282,#281,#340,.T.);
#206=EDGE_CURVE('',#283,#282,#341,.T.);
#207=EDGE_CURVE('',#284,#283,#342,.T.);
#208=EDGE_CURVE('',#285,#284,#343,.T.);
#209=EDGE_CURVE('',#286,#285,#344,.T.);
#210=EDGE_CURVE('',#274,#286,#345,.T.);
#211=EDGE_CURVE('',#273,#276,#346,.T.);
#212=EDGE_CURVE('',#287,#272,#347,.T.);
#213=EDGE_CURVE('',#287,#288,#348,.T.);
#214=EDGE_CURVE('',#288,#289,#349,.T.);
#215=EDGE_CURVE('',#276,#289,#350,.T.);
#216=EDGE_CURVE('',#290,#257,#351,.T.);
#217=EDGE_CURVE('',#291,#290,#352,.T.);
#218=EDGE_CURVE('',#292,#291,#353,.T.);
#219=EDGE_CURVE('',#262,#292,#354,.T.);
#220=EDGE_CURVE('',#271,#293,#355,.T.);
#221=EDGE_CURVE('',#293,#294,#356,.T.);
#222=EDGE_CURVE('',#294,#295,#357,.T.);
#223=EDGE_CURVE('',#295,#296,#358,.T.);
#224=EDGE_CURVE('',#296,#297,#359,.T.);
#225=EDGE_CURVE('',#297,#298,#360,.T.);
#226=EDGE_CURVE('',#298,#299,#361,.T.);
#227=EDGE_CURVE('',#299,#300,#362,.T.);
#228=EDGE_CURVE('',#300,#301,#363,.T.);
#229=EDGE_CURVE('',#301,#302,#364,.T.);
#230=EDGE_CURVE('',#302,#303,#365,.T.);
#231=EDGE_CURVE('',#303,#289,#366,.T.);
#232=EDGE_CURVE('',#304,#288,#367,.T.);
#233=EDGE_CURVE('',#258,#304,#368,.T.);
#234=EDGE_CURVE('',#277,#302,#369,.T.);
#235=EDGE_CURVE('',#275,#303,#370,.T.);
#236=EDGE_CURVE('',#278,#301,#371,.T.);
#237=EDGE_CURVE('',#279,#300,#372,.T.);
#238=EDGE_CURVE('',#280,#299,#373,.T.);
#239=EDGE_CURVE('',#282,#297,#374,.T.);
#240=EDGE_CURVE('',#281,#298,#375,.T.);
#241=EDGE_CURVE('',#283,#296,#376,.T.);
#242=EDGE_CURVE('',#284,#295,#377,.T.);
#243=EDGE_CURVE('',#285,#294,#378,.T.);
#244=EDGE_CURVE('',#286,#293,#379,.T.);
#245=EDGE_CURVE('',#305,#304,#380,.T.);
#246=EDGE_CURVE('',#256,#305,#381,.T.);
#247=EDGE_CURVE('',#305,#287,#382,.T.);
#248=EDGE_CURVE('',#306,#255,#383,.T.);
#249=EDGE_CURVE('',#306,#290,#384,.T.);
#250=EDGE_CURVE('',#307,#306,#385,.T.);
#251=EDGE_CURVE('',#307,#291,#386,.T.);
#252=EDGE_CURVE('',#308,#292,#387,.T.);
#253=EDGE_CURVE('',#260,#308,#388,.T.);
#254=EDGE_CURVE('',#308,#307,#389,.T.);
#255=VERTEX_POINT('',#773);
#256=VERTEX_POINT('',#774);
#257=VERTEX_POINT('',#776);
#258=VERTEX_POINT('',#778);
#259=VERTEX_POINT('',#782);
#260=VERTEX_POINT('',#783);
#261=VERTEX_POINT('',#785);
#262=VERTEX_POINT('',#787);
#263=VERTEX_POINT('',#791);
#264=VERTEX_POINT('',#793);
#265=VERTEX_POINT('',#797);
#266=VERTEX_POINT('',#799);
#267=VERTEX_POINT('',#803);
#268=VERTEX_POINT('',#805);
#269=VERTEX_POINT('',#809);
#270=VERTEX_POINT('',#811);
#271=VERTEX_POINT('',#815);
#272=VERTEX_POINT('',#817);
#273=VERTEX_POINT('',#819);
#274=VERTEX_POINT('',#821);
#275=VERTEX_POINT('',#825);
#276=VERTEX_POINT('',#826);
#277=VERTEX_POINT('',#828);
#278=VERTEX_POINT('',#830);
#279=VERTEX_POINT('',#832);
#280=VERTEX_POINT('',#834);
#281=VERTEX_POINT('',#836);
#282=VERTEX_POINT('',#838);
#283=VERTEX_POINT('',#840);
#284=VERTEX_POINT('',#842);
#285=VERTEX_POINT('',#844);
#286=VERTEX_POINT('',#846);
#287=VERTEX_POINT('',#851);
#288=VERTEX_POINT('',#853);
#289=VERTEX_POINT('',#855);
#290=VERTEX_POINT('',#859);
#291=VERTEX_POINT('',#861);
#292=VERTEX_POINT('',#863);
#293=VERTEX_POINT('',#866);
#294=VERTEX_POINT('',#868);
#295=VERTEX_POINT('',#870);
#296=VERTEX_POINT('',#872);
#297=VERTEX_POINT('',#874);
#298=VERTEX_POINT('',#876);
#299=VERTEX_POINT('',#878);
#300=VERTEX_POINT('',#880);
#301=VERTEX_POINT('',#882);
#302=VERTEX_POINT('',#884);
#303=VERTEX_POINT('',#886);
#304=VERTEX_POINT('',#889);
#305=VERTEX_POINT('',#916);
#306=VERTEX_POINT('',#922);
#307=VERTEX_POINT('',#926);
#308=VERTEX_POINT('',#930);
#309=LINE('',#772,#390);
#310=LINE('',#775,#391);
#311=LINE('',#777,#392);
#312=LINE('',#779,#393);
#313=LINE('',#781,#394);
#314=LINE('',#784,#395);
#315=LINE('',#786,#396);
#316=LINE('',#788,#397);
#317=LINE('',#790,#398);
#318=LINE('',#792,#399);
#319=LINE('',#794,#400);
#320=LINE('',#796,#401);
#321=LINE('',#798,#402);
#322=LINE('',#800,#403);
#323=LINE('',#802,#404);
#324=LINE('',#804,#405);
#325=LINE('',#806,#406);
#326=LINE('',#808,#407);
#327=LINE('',#810,#408);
#328=LINE('',#812,#409);
#329=LINE('',#814,#410);
#330=LINE('',#816,#411);
#331=LINE('',#818,#412);
#332=LINE('',#820,#413);
#333=LINE('',#822,#414);
#334=LINE('',#824,#415);
#335=LINE('',#827,#416);
#336=LINE('',#829,#417);
#337=LINE('',#831,#418);
#338=LINE('',#833,#419);
#339=LINE('',#835,#420);
#340=LINE('',#837,#421);
#341=LINE('',#839,#422);
#342=LINE('',#841,#423);
#343=LINE('',#843,#424);
#344=LINE('',#845,#425);
#345=LINE('',#847,#426);
#346=LINE('',#848,#427);
#347=LINE('',#850,#428);
#348=LINE('',#852,#429);
#349=LINE('',#854,#430);
#350=LINE('',#856,#431);
#351=LINE('',#858,#432);
#352=LINE('',#860,#433);
#353=LINE('',#862,#434);
#354=LINE('',#864,#435);
#355=LINE('',#865,#436);
#356=LINE('',#867,#437);
#357=LINE('',#869,#438);
#358=LINE('',#871,#439);
#359=LINE('',#873,#440);
#360=LINE('',#875,#441);
#361=LINE('',#877,#442);
#362=LINE('',#879,#443);
#363=LINE('',#881,#444);
#364=LINE('',#883,#445);
#365=LINE('',#885,#446);
#366=LINE('',#887,#447);
#367=LINE('',#888,#448);
#368=LINE('',#890,#449);
#369=LINE('',#892,#450);
#370=LINE('',#893,#451);
#371=LINE('',#896,#452);
#372=LINE('',#898,#453);
#373=LINE('',#900,#454);
#374=LINE('',#902,#455);
#375=LINE('',#903,#456);
#376=LINE('',#906,#457);
#377=LINE('',#908,#458);
#378=LINE('',#910,#459);
#379=LINE('',#912,#460);
#380=LINE('',#915,#461);
#381=LINE('',#917,#462);
#382=LINE('',#919,#463);
#383=LINE('',#921,#464);
#384=LINE('',#923,#465);
#385=LINE('',#925,#466);
#386=LINE('',#927,#467);
#387=LINE('',#929,#468);
#388=LINE('',#931,#469);
#389=LINE('',#933,#470);
#390=VECTOR('',#633,1.);
#391=VECTOR('',#634,1.);
#392=VECTOR('',#635,1.);
#393=VECTOR('',#636,1.);
#394=VECTOR('',#639,1.);
#395=VECTOR('',#640,1.);
#396=VECTOR('',#641,1.);
#397=VECTOR('',#642,1.);
#398=VECTOR('',#645,1.);
#399=VECTOR('',#646,1.);
#400=VECTOR('',#647,1.);
#401=VECTOR('',#650,1.);
#402=VECTOR('',#651,1.);
#403=VECTOR('',#652,1.);
#404=VECTOR('',#655,1.);
#405=VECTOR('',#656,1.);
#406=VECTOR('',#657,1.);
#407=VECTOR('',#660,1.);
#408=VECTOR('',#661,1.);
#409=VECTOR('',#662,1.);
#410=VECTOR('',#665,1.);
#411=VECTOR('',#666,1.);
#412=VECTOR('',#667,1.);
#413=VECTOR('',#668,1.);
#414=VECTOR('',#669,1.);
#415=VECTOR('',#672,1.);
#416=VECTOR('',#673,1.);
#417=VECTOR('',#674,1.);
#418=VECTOR('',#675,1.);
#419=VECTOR('',#676,1.);
#420=VECTOR('',#677,1.);
#421=VECTOR('',#678,1.);
#422=VECTOR('',#679,1.);
#423=VECTOR('',#680,1.);
#424=VECTOR('',#681,1.);
#425=VECTOR('',#682,1.);
#426=VECTOR('',#683,1.);
#427=VECTOR('',#684,1.);
#428=VECTOR('',#687,1.);
#429=VECTOR('',#688,1.);
#430=VECTOR('',#689,1.);
#431=VECTOR('',#690,1.);
#432=VECTOR('',#693,1.);
#433=VECTOR('',#694,1.);
#434=VECTOR('',#695,1.);
#435=VECTOR('',#696,1.);
#436=VECTOR('',#697,1.);
#437=VECTOR('',#698,1.);
#438=VECTOR('',#699,1.);
#439=VECTOR('',#700,1.);
#440=VECTOR('',#701,1.);
#441=VECTOR('',#702,1.);
#442=VECTOR('',#703,1.);
#443=VECTOR('',#704,1.);
#444=VECTOR('',#705,1.);
#445=VECTOR('',#706,1.);
#446=VECTOR('',#707,1.);
#447=VECTOR('',#708,1.);
#448=VECTOR('',#709,1.);
#449=VECTOR('',#710,1.);
#450=VECTOR('',#713,1.);
#451=VECTOR('',#714,1.);
#452=VECTOR('',#719,1.);
#453=VECTOR('',#722,1.);
#454=VECTOR('',#725,1.);
#455=VECTOR('',#728,1.);
#456=VECTOR('',#729,1.);
#457=VECTOR('',#734,1.);
#458=VECTOR('',#737,1.);
#459=VECTOR('',#740,1.);
#460=VECTOR('',#743,1.);
#461=VECTOR('',#748,1.);
#462=VECTOR('',#749,1.);
#463=VECTOR('',#752,1.);
#464=VECTOR('',#755,1.);
#465=VECTOR('',#756,1.);
#466=VECTOR('',#759,1.);
#467=VECTOR('',#760,1.);
#468=VECTOR('',#763,1.);
#469=VECTOR('',#764,1.);
#470=VECTOR('',#767,1.);
#471=EDGE_LOOP('',(#12,#13,#14,#15));
#472=EDGE_LOOP('',(#16,#17,#18,#19));
#473=EDGE_LOOP('',(#20,#21,#22,#23));
#474=EDGE_LOOP('',(#24,#25,#26,#27));
#475=EDGE_LOOP('',(#28,#29,#30,#31));
#476=EDGE_LOOP('',(#32,#33,#34,#35));
#477=EDGE_LOOP('',(#36,#37,#38,#39,#40,#41));
#478=EDGE_LOOP('',(#42,#43,#44,#45,#46,#47,#48,#49,#50,#51,#52,#53,#54,
#55));
#479=EDGE_LOOP('',(#56,#57,#58,#59,#60,#61));
#480=EDGE_LOOP('',(#62,#63,#64,#65,#66,#67,#68,#69,#70,#71,#72,#73,#74,
#75,#76,#77,#78,#79,#80,#81,#82,#83,#84,#85,#86,#87));
#481=EDGE_LOOP('',(#88,#89,#90,#91));
#482=EDGE_LOOP('',(#92,#93,#94,#95));
#483=EDGE_LOOP('',(#96,#97,#98,#99));
#484=EDGE_LOOP('',(#100,#101,#102,#103));
#485=EDGE_LOOP('',(#104,#105,#106,#107));
#486=EDGE_LOOP('',(#108,#109,#110,#111));
#487=EDGE_LOOP('',(#112,#113,#114,#115));
#488=EDGE_LOOP('',(#116,#117,#118,#119));
#489=EDGE_LOOP('',(#120,#121,#122,#123));
#490=EDGE_LOOP('',(#124,#125,#126,#127));
#491=EDGE_LOOP('',(#128,#129,#130,#131));
#492=EDGE_LOOP('',(#132,#133,#134,#135));
#493=EDGE_LOOP('',(#136,#137,#138,#139));
#494=EDGE_LOOP('',(#140,#141,#142,#143));
#495=EDGE_LOOP('',(#144,#145,#146,#147));
#496=EDGE_LOOP('',(#148,#149,#150,#151));
#497=EDGE_LOOP('',(#152,#153,#154,#155));
#498=EDGE_LOOP('',(#156,#157,#158,#159));
#499=EDGE_LOOP('',(#160,#161,#162,#163,#164,#165,#166,#167,#168,#169,#170,
#171,#172,#173));
#500=FACE_BOUND('',#471,.T.);
#501=FACE_BOUND('',#472,.T.);
#502=FACE_BOUND('',#473,.T.);
#503=FACE_BOUND('',#474,.T.);
#504=FACE_BOUND('',#475,.T.);
#505=FACE_BOUND('',#476,.T.);
#506=FACE_BOUND('',#477,.T.);
#507=FACE_BOUND('',#478,.T.);
#508=FACE_BOUND('',#479,.T.);
#509=FACE_BOUND('',#480,.T.);
#510=FACE_BOUND('',#481,.T.);
#511=FACE_BOUND('',#482,.T.);
#512=FACE_BOUND('',#483,.T.);
#513=FACE_BOUND('',#484,.T.);
#514=FACE_BOUND('',#485,.T.);
#515=FACE_BOUND('',#486,.T.);
#516=FACE_BOUND('',#487,.T.);
#517=FACE_BOUND('',#488,.T.);
#518=FACE_BOUND('',#489,.T.);
#519=FACE_BOUND('',#490,.T.);
#520=FACE_BOUND('',#491,.T.);
#521=FACE_BOUND('',#492,.T.);
#522=FACE_BOUND('',#493,.T.);
#523=FACE_BOUND('',#494,.T.);
#524=FACE_BOUND('',#495,.T.);
#525=FACE_BOUND('',#496,.T.);
#526=FACE_BOUND('',#497,.T.);
#527=FACE_BOUND('',#498,.T.);
#528=FACE_BOUND('',#499,.T.);
#529=PLANE('',#600);
#530=PLANE('',#601);
#531=PLANE('',#602);
#532=PLANE('',#603);
#533=PLANE('',#604);
#534=PLANE('',#605);
#535=PLANE('',#606);
#536=PLANE('',#607);
#537=PLANE('',#608);
#538=PLANE('',#609);
#539=PLANE('',#610);
#540=PLANE('',#611);
#541=PLANE('',#612);
#542=PLANE('',#613);
#543=PLANE('',#614);
#544=PLANE('',#615);
#545=PLANE('',#616);
#546=PLANE('',#617);
#547=PLANE('',#618);
#548=PLANE('',#619);
#549=PLANE('',#620);
#550=PLANE('',#621);
#551=PLANE('',#622);
#552=PLANE('',#623);
#553=PLANE('',#624);
#554=PLANE('',#625);
#555=PLANE('',#626);
#556=PLANE('',#627);
#557=PLANE('',#628);
#558=ADVANCED_FACE('',(#500),#529,.F.);
#559=ADVANCED_FACE('',(#501),#530,.F.);
#560=ADVANCED_FACE('',(#502),#531,.F.);
#561=ADVANCED_FACE('',(#503),#532,.F.);
#562=ADVANCED_FACE('',(#504),#533,.F.);
#563=ADVANCED_FACE('',(#505),#534,.F.);
#564=ADVANCED_FACE('',(#506),#535,.F.);
#565=ADVANCED_FACE('',(#507),#536,.T.);
#566=ADVANCED_FACE('',(#508),#537,.T.);
#567=ADVANCED_FACE('',(#509),#538,.F.);
#568=ADVANCED_FACE('',(#510),#539,.T.);
#569=ADVANCED_FACE('',(#511),#540,.T.);
#570=ADVANCED_FACE('',(#512),#541,.T.);
#571=ADVANCED_FACE('',(#513),#542,.T.);
#572=ADVANCED_FACE('',(#514),#543,.T.);
#573=ADVANCED_FACE('',(#515),#544,.T.);
#574=ADVANCED_FACE('',(#516),#545,.T.);
#575=ADVANCED_FACE('',(#517),#546,.T.);
#576=ADVANCED_FACE('',(#518),#547,.T.);
#577=ADVANCED_FACE('',(#519),#548,.T.);
#578=ADVANCED_FACE('',(#520),#549,.T.);
#579=ADVANCED_FACE('',(#521),#550,.T.);
#580=ADVANCED_FACE('',(#522),#551,.F.);
#581=ADVANCED_FACE('',(#523),#552,.F.);
#582=ADVANCED_FACE('',(#524),#553,.F.);
#583=ADVANCED_FACE('',(#525),#554,.F.);
#584=ADVANCED_FACE('',(#526),#555,.F.);
#585=ADVANCED_FACE('',(#527),#556,.F.);
#586=ADVANCED_FACE('',(#528),#557,.T.);
#587=CLOSED_SHELL('',(#558,#559,#560,#561,#562,#563,#564,#565,#566,#567,
#568,#569,#570,#571,#572,#573,#574,#575,#576,#577,#578,#579,#580,#581,#582,
#583,#584,#585,#586));
#588=STYLED_ITEM('',(#589),#596);
#589=PRESENTATION_STYLE_ASSIGNMENT((#590));
#590=SURFACE_STYLE_USAGE(.BOTH.,#591);
#591=SURFACE_SIDE_STYLE('',(#592));
#592=SURFACE_STYLE_FILL_AREA(#593);
#593=FILL_AREA_STYLE('',(#594));
#594=FILL_AREA_STYLE_COLOUR('',#595);
#595=COLOUR_RGB('',0.917647058823529,0.917647058823529,0.917647058823529);
#596=MANIFOLD_SOLID_BREP('Part 1',#587);
#597=SHAPE_DEFINITION_REPRESENTATION(#941,#598);
#598=SHAPE_REPRESENTATION('Part 1',(#599),#936);
#599=AXIS2_PLACEMENT_3D('',#770,#629,#630);
#600=AXIS2_PLACEMENT_3D('',#771,#631,#632);
#601=AXIS2_PLACEMENT_3D('',#780,#637,#638);
#602=AXIS2_PLACEMENT_3D('',#789,#643,#644);
#603=AXIS2_PLACEMENT_3D('',#795,#648,#649);
#604=AXIS2_PLACEMENT_3D('',#801,#653,#654);
#605=AXIS2_PLACEMENT_3D('',#807,#658,#659);
#606=AXIS2_PLACEMENT_3D('',#813,#663,#664);
#607=AXIS2_PLACEMENT_3D('',#823,#670,#671);
#608=AXIS2_PLACEMENT_3D('',#849,#685,#686);
#609=AXIS2_PLACEMENT_3D('',#857,#691,#692);
#610=AXIS2_PLACEMENT_3D('',#891,#711,#712);
#611=AXIS2_PLACEMENT_3D('',#894,#715,#716);
#612=AXIS2_PLACEMENT_3D('',#895,#717,#718);
#613=AXIS2_PLACEMENT_3D('',#897,#720,#721);
#614=AXIS2_PLACEMENT_3D('',#899,#723,#724);
#615=AXIS2_PLACEMENT_3D('',#901,#726,#727);
#616=AXIS2_PLACEMENT_3D('',#904,#730,#731);
#617=AXIS2_PLACEMENT_3D('',#905,#732,#733);
#618=AXIS2_PLACEMENT_3D('',#907,#735,#736);
#619=AXIS2_PLACEMENT_3D('',#909,#738,#739);
#620=AXIS2_PLACEMENT_3D('',#911,#741,#742);
#621=AXIS2_PLACEMENT_3D('',#913,#744,#745);
#622=AXIS2_PLACEMENT_3D('',#914,#746,#747);
#623=AXIS2_PLACEMENT_3D('',#918,#750,#751);
#624=AXIS2_PLACEMENT_3D('',#920,#753,#754);
#625=AXIS2_PLACEMENT_3D('',#924,#757,#758);
#626=AXIS2_PLACEMENT_3D('',#928,#761,#762);
#627=AXIS2_PLACEMENT_3D('',#932,#765,#766);
#628=AXIS2_PLACEMENT_3D('',#934,#768,#769);
#629=DIRECTION('',(0.,0.,1.));
#630=DIRECTION('',(1.,0.,0.));
#631=DIRECTION('',(-1.22464679914735E-16,1.,0.));
#632=DIRECTION('',(-1.,-1.22464679914735E-16,0.));
#633=DIRECTION('',(-1.,0.,0.));
#634=DIRECTION('',(0.,0.,1.));
#635=DIRECTION('',(-1.,-1.22464679914735E-16,0.));
#636=DIRECTION('',(0.,0.,1.));
#637=DIRECTION('',(1.,1.22464679914735E-16,0.));
#638=DIRECTION('',(-1.22464679914735E-16,1.,0.));
#639=DIRECTION('',(0.,1.,0.));
#640=DIRECTION('',(0.,0.,1.));
#641=DIRECTION('',(-1.22464679914735E-16,1.,0.));
#642=DIRECTION('',(0.,0.,1.));
#643=DIRECTION('',(0.680734863063677,-0.732529894413653,0.));
#644=DIRECTION('',(0.732529894413653,0.680734863063677,0.));
#645=DIRECTION('',(0.732529894413653,0.680734863063677,0.));
#646=DIRECTION('',(0.,0.,1.));
#647=DIRECTION('',(0.732529894413653,0.680734863063677,0.));
#648=DIRECTION('',(1.22464679914735E-16,-1.,0.));
#649=DIRECTION('',(1.,1.22464679914735E-16,0.));
#650=DIRECTION('',(1.,1.25588599801908E-16,0.));
#651=DIRECTION('',(0.,0.,1.));
#652=DIRECTION('',(1.,1.22464679914735E-16,0.));
#653=DIRECTION('',(-0.983453191482262,-0.181162413771048,0.));
#654=DIRECTION('',(0.181162413771048,-0.983453191482263,0.));
#655=DIRECTION('',(0.181162413771049,-0.983453191482262,0.));
#656=DIRECTION('',(0.,0.,1.));
#657=DIRECTION('',(0.181162413771048,-0.983453191482262,0.));
#658=DIRECTION('',(-1.,-1.22464679914735E-16,0.));
#659=DIRECTION('',(1.22464679914735E-16,-1.,0.));
#660=DIRECTION('',(1.04989462040438E-16,-1.,0.));
#661=DIRECTION('',(0.,0.,1.));
#662=DIRECTION('',(1.22464679914735E-16,-1.,0.));
#663=DIRECTION('',(1.22464679914735E-16,-1.,0.));
#664=DIRECTION('',(0.,0.,1.));
#665=DIRECTION('',(-1.,-1.22464679914735E-16,0.));
#666=DIRECTION('',(-1.,0.,0.));
#667=DIRECTION('',(0.,0.,-1.));
#668=DIRECTION('',(-1.,-1.22464679914735E-16,0.));
#669=DIRECTION('',(0.,0.,1.));
#670=DIRECTION('',(0.,0.,-1.));
#671=DIRECTION('',(-1.,-1.22464679914735E-16,0.));
#672=DIRECTION('',(-1.,-1.22464679914735E-16,0.));
#673=DIRECTION('',(1.22464679914735E-16,-1.,0.));
#674=DIRECTION('',(-1.,-1.22464679914735E-16,0.));
#675=DIRECTION('',(-1.22464679914735E-16,1.,0.));
#676=DIRECTION('',(-1.,-1.22464679914735E-16,0.));
#677=DIRECTION('',(-1.22464679914735E-16,1.,0.));
#678=DIRECTION('',(-1.,-1.22464679914735E-16,0.));
#679=DIRECTION('',(-1.22464679914735E-16,1.,0.));
#680=DIRECTION('',(0.732529894413653,0.680734863063677,0.));
#681=DIRECTION('',(1.,1.22464679914735E-16,0.));
#682=DIRECTION('',(0.181162413771048,-0.983453191482263,0.));
#683=DIRECTION('',(1.22464679914735E-16,-1.,0.));
#684=DIRECTION('',(-1.22464679914735E-16,1.,0.));
#685=DIRECTION('',(-1.,-1.22464679914735E-16,0.));
#686=DIRECTION('',(0.,0.,1.));
#687=DIRECTION('',(0.,1.,0.));
#688=DIRECTION('',(0.,0.,1.));
#689=DIRECTION('',(-1.22464679914735E-16,1.,0.));
#690=DIRECTION('',(0.,0.,1.));
#691=DIRECTION('',(0.,0.,-1.));
#692=DIRECTION('',(-1.,-1.22464679914735E-16,0.));
#693=DIRECTION('',(-1.22464679914735E-16,1.,0.));
#694=DIRECTION('',(-1.,-1.22464679914735E-16,0.));
#695=DIRECTION('',(-1.22464679914735E-16,1.,0.));
#696=DIRECTION('',(-1.,-1.22464679914735E-16,0.));
#697=DIRECTION('',(1.22464679914735E-16,-1.,0.));
#698=DIRECTION('',(0.181162413771048,-0.983453191482263,0.));
#699=DIRECTION('',(1.,1.22464679914735E-16,0.));
#700=DIRECTION('',(0.732529894413653,0.680734863063677,0.));
#701=DIRECTION('',(-1.22464679914735E-16,1.,0.));
#702=DIRECTION('',(-1.,-1.22464679914735E-16,0.));
#703=DIRECTION('',(-1.22464679914735E-16,1.,0.));
#704=DIRECTION('',(-1.,-1.22464679914735E-16,0.));
#705=DIRECTION('',(-1.22464679914735E-16,1.,0.));
#706=DIRECTION('',(-1.,-1.22464679914735E-16,0.));
#707=DIRECTION('',(1.22464679914735E-16,-1.,0.));
#708=DIRECTION('',(-1.,-1.22464679914735E-16,0.));
#709=DIRECTION('',(-1.,-1.22464679914735E-16,0.));
#710=DIRECTION('',(1.22464679914735E-16,-1.,0.));
#711=DIRECTION('',(-1.,-1.22464679914735E-16,0.));
#712=DIRECTION('',(1.22464679914735E-16,-1.,0.));
#713=DIRECTION('',(0.,0.,1.));
#714=DIRECTION('',(0.,0.,1.));
#715=DIRECTION('',(-1.22464679914735E-16,1.,0.));
#716=DIRECTION('',(-1.,-1.22464679914735E-16,0.));
#717=DIRECTION('',(-1.22464679914735E-16,1.,0.));
#718=DIRECTION('',(-1.,-1.22464679914735E-16,0.));
#719=DIRECTION('',(0.,0.,1.));
#720=DIRECTION('',(1.,1.22464679914735E-16,0.));
#721=DIRECTION('',(-1.22464679914735E-16,1.,0.));
#722=DIRECTION('',(0.,0.,1.));
#723=DIRECTION('',(-1.22464679914735E-16,1.,0.));
#724=DIRECTION('',(-1.,-1.22464679914735E-16,0.));
#725=DIRECTION('',(0.,0.,1.));
#726=DIRECTION('',(-1.22464679914735E-16,1.,0.));
#727=DIRECTION('',(-1.,-1.22464679914735E-16,0.));
#728=DIRECTION('',(0.,0.,1.));
#729=DIRECTION('',(0.,0.,1.));
#730=DIRECTION('',(1.,1.22464679914735E-16,0.));
#731=DIRECTION('',(-1.22464679914735E-16,1.,0.));
#732=DIRECTION('',(1.,1.22464679914735E-16,0.));
#733=DIRECTION('',(-1.22464679914735E-16,1.,0.));
#734=DIRECTION('',(0.,0.,1.));
#735=DIRECTION('',(0.680734863063677,-0.732529894413653,0.));
#736=DIRECTION('',(0.732529894413653,0.680734863063677,0.));
#737=DIRECTION('',(0.,0.,1.));
#738=DIRECTION('',(1.22464679914735E-16,-1.,0.));
#739=DIRECTION('',(1.,1.22464679914735E-16,0.));
#740=DIRECTION('',(0.,0.,1.));
#741=DIRECTION('',(-0.983453191482262,-0.181162413771048,0.));
#742=DIRECTION('',(0.181162413771048,-0.983453191482263,0.));
#743=DIRECTION('',(0.,0.,1.));
#744=DIRECTION('',(-1.,-1.22464679914735E-16,0.));
#745=DIRECTION('',(1.22464679914735E-16,-1.,0.));
#746=DIRECTION('',(-1.,-1.22464679914735E-16,0.));
#747=DIRECTION('',(1.22464679914735E-16,-1.,0.));
#748=DIRECTION('',(0.,0.,1.));
#749=DIRECTION('',(0.,-1.,0.));
#750=DIRECTION('',(-1.22464679914735E-16,1.,0.));
#751=DIRECTION('',(-1.,-1.22464679914735E-16,0.));
#752=DIRECTION('',(-1.,0.,0.));
#753=DIRECTION('',(1.,1.22464679914735E-16,0.));
#754=DIRECTION('',(-1.22464679914735E-16,1.,0.));
#755=DIRECTION('',(0.,1.,0.));
#756=DIRECTION('',(0.,0.,1.));
#757=DIRECTION('',(-1.22464679914735E-16,1.,0.));
#758=DIRECTION('',(-1.,-1.22464679914735E-16,0.));
#759=DIRECTION('',(-1.,0.,0.));
#760=DIRECTION('',(0.,0.,1.));
#761=DIRECTION('',(-1.22464679914735E-16,1.,0.));
#762=DIRECTION('',(-1.,-1.22464679914735E-16,0.));
#763=DIRECTION('',(0.,0.,1.));
#764=DIRECTION('',(-1.,-8.89601782552209E-17,0.));
#765=DIRECTION('',(1.,1.22464679914735E-16,0.));
#766=DIRECTION('',(-1.22464679914735E-16,1.,0.));
#767=DIRECTION('',(-2.31296463463574E-16,1.,0.));
#768=DIRECTION('',(0.,0.,1.));
#769=DIRECTION('',(1.,0.,0.));
#770=CARTESIAN_POINT('',(0.,0.,0.));
#771=CARTESIAN_POINT('',(0.0102221032954798,0.047456857,0.));
#772=CARTESIAN_POINT('',(0.000767085999999986,0.047456857,0.003));
#773=CARTESIAN_POINT('',(0.012267086,0.047456857,0.003));
#774=CARTESIAN_POINT('',(-0.010732914,0.047456857,0.003));
#775=CARTESIAN_POINT('',(0.012267086,0.047456857,0.));
#776=CARTESIAN_POINT('',(0.012267086,0.047456857,0.013));
#777=CARTESIAN_POINT('',(0.0102221032954798,0.047456857,0.013));
#778=CARTESIAN_POINT('',(-0.010732914,0.047456857,0.013));
#779=CARTESIAN_POINT('',(-0.010732914,0.047456857,0.));
#780=CARTESIAN_POINT('',(0.051267086,-0.00663811235218766,0.));
#781=CARTESIAN_POINT('',(0.051267086,0.00340055447250282,0.003));
#782=CARTESIAN_POINT('',(0.051267086,-0.00815574805499432,0.003));
#783=CARTESIAN_POINT('',(0.051267086,0.014956857,0.003));
#784=CARTESIAN_POINT('',(0.051267086,-0.00815574805499429,0.));
#785=CARTESIAN_POINT('',(0.051267086,-0.00815574805499429,0.013));
#786=CARTESIAN_POINT('',(0.051267086,-0.00663811235218766,0.013));
#787=CARTESIAN_POINT('',(0.051267086,0.014956857,0.013));
#788=CARTESIAN_POINT('',(0.051267086,0.014956857,0.));
#789=CARTESIAN_POINT('',(0.0053150766745296,-0.0508586261412376,0.));
#790=CARTESIAN_POINT('',(0.0300749553880594,-0.0278494455274972,0.003));
#791=CARTESIAN_POINT('',(0.0088828247761188,-0.047543143,0.003));
#792=CARTESIAN_POINT('',(0.00888282477611879,-0.047543143,0.));
#793=CARTESIAN_POINT('',(0.00888282477611879,-0.047543143,0.013));
#794=CARTESIAN_POINT('',(0.0053150766745296,-0.0508586261412376,0.013));
#795=CARTESIAN_POINT('',(-0.0462467457342227,-0.0475431430000001,0.));
#796=CARTESIAN_POINT('',(-0.0187426679630789,-0.0475431430000001,0.003));
#797=CARTESIAN_POINT('',(-0.0463681607022766,-0.0475431430000001,0.003));
#798=CARTESIAN_POINT('',(-0.0463681607022766,-0.0475431430000001,0.));
#799=CARTESIAN_POINT('',(-0.0463681607022766,-0.0475431430000001,0.013));
#800=CARTESIAN_POINT('',(-0.0462467457342227,-0.0475431430000001,0.013));
#801=CARTESIAN_POINT('',(-0.0518032030401832,-0.0180386248066699,0.));
#802=CARTESIAN_POINT('',(-0.0488005373511383,-0.0343388114368695,0.003));
#803=CARTESIAN_POINT('',(-0.051232914,-0.0211344798737388,0.003));
#804=CARTESIAN_POINT('',(-0.051232914,-0.0211344798737388,0.));
#805=CARTESIAN_POINT('',(-0.051232914,-0.0211344798737388,0.013));
#806=CARTESIAN_POINT('',(-0.0518032030401832,-0.0180386248066699,0.013));
#807=CARTESIAN_POINT('',(-0.051232914,0.0390499421308188,0.));
#808=CARTESIAN_POINT('',(-0.051232914,0.0119111885631305,0.003));
#809=CARTESIAN_POINT('',(-0.051232914,0.044956857,0.003));
#810=CARTESIAN_POINT('',(-0.051232914,0.044956857,0.));
#811=CARTESIAN_POINT('',(-0.051232914,0.044956857,0.013));
#812=CARTESIAN_POINT('',(-0.051232914,0.0390499421308188,0.013));
#813=CARTESIAN_POINT('',(-0.051232914,0.044956857,0.));
#814=CARTESIAN_POINT('',(-0.051232914,0.044956857,0.013));
#815=CARTESIAN_POINT('',(-0.056232914,0.044956857,0.013));
#816=CARTESIAN_POINT('',(-0.039732914,0.044956857,0.003));
#817=CARTESIAN_POINT('',(-0.028232914,0.044956857,0.003));
#818=CARTESIAN_POINT('',(-0.028232914,0.044956857,0.003));
#819=CARTESIAN_POINT('',(-0.028232914,0.044956857,0.));
#820=CARTESIAN_POINT('',(-0.051232914,0.044956857,0.));
#821=CARTESIAN_POINT('',(-0.056232914,0.044956857,0.));
#822=CARTESIAN_POINT('',(-0.056232914,0.044956857,0.));
#823=CARTESIAN_POINT('',(-0.00832759886607076,0.044456857,0.));
#824=CARTESIAN_POINT('',(-0.00832759886607076,0.049456857,0.));
#825=CARTESIAN_POINT('',(-0.015732914,0.049456857,0.));
#826=CARTESIAN_POINT('',(-0.028232914,0.049456857,0.));
#827=CARTESIAN_POINT('',(-0.015732914,0.0412602158562776,0.));
#828=CARTESIAN_POINT('',(-0.015732914,0.052456857,0.));
#829=CARTESIAN_POINT('',(0.0102221032954798,0.052456857,0.));
#830=CARTESIAN_POINT('',(0.017267086,0.052456857,0.));
#831=CARTESIAN_POINT('',(0.017267086,0.0366764293772048,0.));
#832=CARTESIAN_POINT('',(0.017267086,0.049956857,0.));
#833=CARTESIAN_POINT('',(0.0275967842020139,0.049956857,0.));
#834=CARTESIAN_POINT('',(0.036767086,0.049956857,0.));
#835=CARTESIAN_POINT('',(0.036767086,0.0122321550336546,0.));
#836=CARTESIAN_POINT('',(0.036767086,0.0199568569999999,0.));
#837=CARTESIAN_POINT('',(0.0444663027055607,0.0199568569999999,0.));
#838=CARTESIAN_POINT('',(0.056267086,0.0199568569999999,0.));
#839=CARTESIAN_POINT('',(0.056267086,-0.00663811235218766,0.));
#840=CARTESIAN_POINT('',(0.056267086,-0.0103349433299658,0.));
#841=CARTESIAN_POINT('',(0.00871875098984799,-0.0545212756133059,0.));
#842=CARTESIAN_POINT('',(0.0108473936567443,-0.052543143,0.));
#843=CARTESIAN_POINT('',(-0.0462467457342227,-0.0525431430000001,0.));
#844=CARTESIAN_POINT('',(-0.0505312342136595,-0.052543143,0.));
#845=CARTESIAN_POINT('',(-0.0567204689975945,-0.0189444368755252,0.));
#846=CARTESIAN_POINT('',(-0.056232914,-0.0215911642425685,0.));
#847=CARTESIAN_POINT('',(-0.056232914,0.0390499421308188,0.));
#848=CARTESIAN_POINT('',(-0.028232914,0.044456857,0.));
#849=CARTESIAN_POINT('',(-0.028232914,0.044456857,0.));
#850=CARTESIAN_POINT('',(-0.028232914,0.044706857,0.003));
#851=CARTESIAN_POINT('',(-0.028232914,0.044456857,0.003));
#852=CARTESIAN_POINT('',(-0.028232914,0.044456857,0.));
#853=CARTESIAN_POINT('',(-0.028232914,0.044456857,0.013));
#854=CARTESIAN_POINT('',(-0.028232914,0.044456857,0.013));
#855=CARTESIAN_POINT('',(-0.028232914,0.049456857,0.013));
#856=CARTESIAN_POINT('',(-0.028232914,0.049456857,0.));
#857=CARTESIAN_POINT('',(0.0102221032954798,0.047456857,0.013));
#858=CARTESIAN_POINT('',(0.012267086,0.0366764293772048,0.013));
#859=CARTESIAN_POINT('',(0.012267086,0.044956857,0.013));
#860=CARTESIAN_POINT('',(0.0275967842020139,0.044956857,0.013));
#861=CARTESIAN_POINT('',(0.031767086,0.044956857,0.013));
#862=CARTESIAN_POINT('',(0.031767086,0.0122321550336546,0.013));
#863=CARTESIAN_POINT('',(0.031767086,0.014956857,0.013));
#864=CARTESIAN_POINT('',(0.0444663027055607,0.014956857,0.013));
#865=CARTESIAN_POINT('',(-0.056232914,0.0390499421308188,0.013));
#866=CARTESIAN_POINT('',(-0.056232914,-0.0215911642425685,0.013));
#867=CARTESIAN_POINT('',(-0.0567204689975945,-0.0189444368755252,0.013));
#868=CARTESIAN_POINT('',(-0.0505312342136595,-0.0525431430000001,0.013));
#869=CARTESIAN_POINT('',(-0.0462467457342227,-0.0525431430000001,0.013));
#870=CARTESIAN_POINT('',(0.0108473936567443,-0.052543143,0.013));
#871=CARTESIAN_POINT('',(0.00871875098984799,-0.0545212756133059,0.013));
#872=CARTESIAN_POINT('',(0.056267086,-0.0103349433299658,0.013));
#873=CARTESIAN_POINT('',(0.056267086,-0.00663811235218766,0.013));
#874=CARTESIAN_POINT('',(0.056267086,0.0199568569999999,0.013));
#875=CARTESIAN_POINT('',(0.0444663027055607,0.0199568569999999,0.013));
#876=CARTESIAN_POINT('',(0.036767086,0.0199568569999999,0.013));
#877=CARTESIAN_POINT('',(0.036767086,0.0122321550336546,0.013));
#878=CARTESIAN_POINT('',(0.036767086,0.049956857,0.013));
#879=CARTESIAN_POINT('',(0.0275967842020139,0.049956857,0.013));
#880=CARTESIAN_POINT('',(0.017267086,0.049956857,0.013));
#881=CARTESIAN_POINT('',(0.017267086,0.0366764293772048,0.013));
#882=CARTESIAN_POINT('',(0.017267086,0.052456857,0.013));
#883=CARTESIAN_POINT('',(0.0102221032954798,0.052456857,0.013));
#884=CARTESIAN_POINT('',(-0.015732914,0.052456857,0.013));
#885=CARTESIAN_POINT('',(-0.015732914,0.0412602158562776,0.013));
#886=CARTESIAN_POINT('',(-0.015732914,0.049456857,0.013));
#887=CARTESIAN_POINT('',(-0.00832759886607076,0.049456857,0.013));
#888=CARTESIAN_POINT('',(-0.00832759886607076,0.044456857,0.013));
#889=CARTESIAN_POINT('',(-0.010732914,0.044456857,0.013));
#890=CARTESIAN_POINT('',(-0.010732914,0.0412602158562776,0.013));
#891=CARTESIAN_POINT('',(-0.015732914,0.0412602158562776,0.));
#892=CARTESIAN_POINT('',(-0.015732914,0.052456857,0.));
#893=CARTESIAN_POINT('',(-0.015732914,0.049456857,0.));
#894=CARTESIAN_POINT('',(-0.00832759886607076,0.049456857,0.));
#895=CARTESIAN_POINT('',(0.0102221032954798,0.052456857,0.));
#896=CARTESIAN_POINT('',(0.017267086,0.052456857,0.));
#897=CARTESIAN_POINT('',(0.017267086,0.0366764293772048,0.));
#898=CARTESIAN_POINT('',(0.017267086,0.049956857,0.));
#899=CARTESIAN_POINT('',(0.0275967842020139,0.049956857,0.));
#900=CARTESIAN_POINT('',(0.036767086,0.049956857,0.));
#901=CARTESIAN_POINT('',(0.0444663027055607,0.0199568569999999,0.));
#902=CARTESIAN_POINT('',(0.056267086,0.0199568569999999,0.));
#903=CARTESIAN_POINT('',(0.036767086,0.0199568569999999,0.));
#904=CARTESIAN_POINT('',(0.036767086,0.0122321550336546,0.));
#905=CARTESIAN_POINT('',(0.056267086,-0.00663811235218766,0.));
#906=CARTESIAN_POINT('',(0.056267086,-0.0103349433299658,0.));
#907=CARTESIAN_POINT('',(0.00871875098984799,-0.0545212756133059,0.));
#908=CARTESIAN_POINT('',(0.0108473936567443,-0.052543143,0.));
#909=CARTESIAN_POINT('',(-0.0462467457342227,-0.0525431430000001,0.));
#910=CARTESIAN_POINT('',(-0.0505312342136595,-0.052543143,0.));
#911=CARTESIAN_POINT('',(-0.0567204689975945,-0.0189444368755252,0.));
#912=CARTESIAN_POINT('',(-0.056232914,-0.0215911642425685,0.));
#913=CARTESIAN_POINT('',(-0.056232914,0.0390499421308188,0.));
#914=CARTESIAN_POINT('',(-0.010732914,0.0412602158562776,0.));
#915=CARTESIAN_POINT('',(-0.010732914,0.044456857,0.));
#916=CARTESIAN_POINT('',(-0.010732914,0.044456857,0.003));
#917=CARTESIAN_POINT('',(-0.010732914,0.045956857,0.003));
#918=CARTESIAN_POINT('',(-0.00832759886607076,0.044456857,0.));
#919=CARTESIAN_POINT('',(-0.019482914,0.044456857,0.003));
#920=CARTESIAN_POINT('',(0.012267086,0.0366764293772048,0.));
#921=CARTESIAN_POINT('',(0.012267086,0.046206857,0.003));
#922=CARTESIAN_POINT('',(0.012267086,0.044956857,0.003));
#923=CARTESIAN_POINT('',(0.012267086,0.044956857,0.));
#924=CARTESIAN_POINT('',(0.0275967842020139,0.044956857,0.));
#925=CARTESIAN_POINT('',(0.022017086,0.044956857,0.003));
#926=CARTESIAN_POINT('',(0.031767086,0.044956857,0.003));
#927=CARTESIAN_POINT('',(0.031767086,0.044956857,0.));
#928=CARTESIAN_POINT('',(0.0444663027055607,0.014956857,0.));
#929=CARTESIAN_POINT('',(0.031767086,0.014956857,0.));
#930=CARTESIAN_POINT('',(0.031767086,0.014956857,0.003));
#931=CARTESIAN_POINT('',(0.041517086,0.014956857,0.003));
#932=CARTESIAN_POINT('',(0.031767086,0.0122321550336546,0.));
#933=CARTESIAN_POINT('',(0.031767086,0.0299568569999999,0.003));
#934=CARTESIAN_POINT('',(1.70860000000064E-5,-4.3143000000051E-5,0.003));
#935=MECHANICAL_DESIGN_GEOMETRIC_PRESENTATION_REPRESENTATION('',(#588),
#936);
#936=(
GEOMETRIC_REPRESENTATION_CONTEXT(3)
GLOBAL_UNCERTAINTY_ASSIGNED_CONTEXT((#937))
GLOBAL_UNIT_ASSIGNED_CONTEXT((#940,#939,#938))
REPRESENTATION_CONTEXT('Part 1','TOP_LEVEL_ASSEMBLY_PART')
);
#937=UNCERTAINTY_MEASURE_WITH_UNIT(LENGTH_MEASURE(1.E-8),#940,
'DISTANCE_ACCURACY_VALUE','Maximum Tolerance applied to model');
#938=(
NAMED_UNIT(*)
SI_UNIT($,.STERADIAN.)
SOLID_ANGLE_UNIT()
);
#939=(
NAMED_UNIT(*)
PLANE_ANGLE_UNIT()
SI_UNIT($,.RADIAN.)
);
#940=(
LENGTH_UNIT()
NAMED_UNIT(*)
SI_UNIT($,.METRE.)
);
#941=PRODUCT_DEFINITION_SHAPE('','',#942);
#942=PRODUCT_DEFINITION('','',#944,#943);
#943=PRODUCT_DEFINITION_CONTEXT('',#950,'design');
#944=PRODUCT_DEFINITION_FORMATION_WITH_SPECIFIED_SOURCE('','',#946,
 .NOT_KNOWN.);
#945=PRODUCT_RELATED_PRODUCT_CATEGORY('','',(#946));
#946=PRODUCT('Part 1','Part 1','Part 1',(#948));
#947=PRODUCT_CATEGORY('','');
#948=PRODUCT_CONTEXT('',#950,'mechanical');
#949=APPLICATION_PROTOCOL_DEFINITION('international standard',
'ap242_managed_model_based_3d_engineering',2011,#950);
#950=APPLICATION_CONTEXT('managed model based 3d engineering');
ENDSEC;
END-ISO-10303-21;
